<mxfile host="app.diagrams.net" agent="Mozilla/5.0 (Windows NT 10.0; Win64; x64) AppleWebKit/537.36 (KHTML, like Gecko) Chrome/135.0.0.0 Safari/537.36" version="26.2.15">
  <diagram name="Page-1" id="e7e014a7-5840-1c2e-5031-d8a46d1fe8dd">
    <mxGraphModel dx="1426" dy="711" grid="1" gridSize="10" guides="1" tooltips="1" connect="1" arrows="1" fold="1" page="1" pageScale="1" pageWidth="1169" pageHeight="826" background="none" math="0" shadow="0">
      <root>
        <mxCell id="0" />
        <mxCell id="1" parent="0" />
        <mxCell id="2" value="User/admin" style="swimlane;whiteSpace=wrap" parent="1" vertex="1">
          <mxGeometry x="139" y="128" width="305.5" height="602" as="geometry" />
        </mxCell>
        <mxCell id="iM6wuMetMFg2LBtmJiii-48" value="" style="edgeStyle=orthogonalEdgeStyle;rounded=0;orthogonalLoop=1;jettySize=auto;html=1;" edge="1" parent="2" source="5" target="iM6wuMetMFg2LBtmJiii-41">
          <mxGeometry relative="1" as="geometry" />
        </mxCell>
        <mxCell id="5" value="" style="ellipse;shape=startState;fillColor=#000000;strokeColor=#ff0000;" parent="2" vertex="1">
          <mxGeometry x="100" y="40" width="30" height="30" as="geometry" />
        </mxCell>
        <mxCell id="iM6wuMetMFg2LBtmJiii-41" value="Xem thông tin đơn mới" style="rounded=1;whiteSpace=wrap;html=1;" vertex="1" parent="2">
          <mxGeometry x="62.5" y="102" width="105" height="48" as="geometry" />
        </mxCell>
        <mxCell id="iM6wuMetMFg2LBtmJiii-43" value="Kiểm tra thông tin khách hàng và đơn đặt" style="rounded=1;whiteSpace=wrap;html=1;" vertex="1" parent="2">
          <mxGeometry x="62.5" y="172" width="105" height="48" as="geometry" />
        </mxCell>
        <mxCell id="iM6wuMetMFg2LBtmJiii-75" value="" style="edgeStyle=orthogonalEdgeStyle;rounded=0;orthogonalLoop=1;jettySize=auto;html=1;" edge="1" parent="2" source="iM6wuMetMFg2LBtmJiii-65" target="iM6wuMetMFg2LBtmJiii-70">
          <mxGeometry relative="1" as="geometry" />
        </mxCell>
        <mxCell id="iM6wuMetMFg2LBtmJiii-65" value="Kiểm tra thông tin khách hàng và đơn đặt" style="rounded=1;whiteSpace=wrap;html=1;" vertex="1" parent="2">
          <mxGeometry x="62.5" y="237" width="105" height="48" as="geometry" />
        </mxCell>
        <mxCell id="iM6wuMetMFg2LBtmJiii-70" value="" style="rhombus;whiteSpace=wrap;html=1;" vertex="1" parent="2">
          <mxGeometry x="81" y="312" width="75" height="68" as="geometry" />
        </mxCell>
        <mxCell id="iM6wuMetMFg2LBtmJiii-78" style="edgeStyle=orthogonalEdgeStyle;rounded=0;orthogonalLoop=1;jettySize=auto;html=1;entryX=0;entryY=0.75;entryDx=0;entryDy=0;" edge="1" parent="2" source="iM6wuMetMFg2LBtmJiii-70" target="iM6wuMetMFg2LBtmJiii-72">
          <mxGeometry relative="1" as="geometry">
            <Array as="points">
              <mxPoint x="119" y="432" />
              <mxPoint x="259" y="432" />
              <mxPoint x="259" y="428" />
            </Array>
          </mxGeometry>
        </mxCell>
        <mxCell id="iM6wuMetMFg2LBtmJiii-82" value="Thông tin hợp lệ" style="text;html=1;align=center;verticalAlign=middle;whiteSpace=wrap;rounded=0;" vertex="1" parent="2">
          <mxGeometry x="191" y="312" width="60" height="30" as="geometry" />
        </mxCell>
        <mxCell id="iM6wuMetMFg2LBtmJiii-93" value="Thông tin không hợp lệ" style="text;html=1;align=center;verticalAlign=middle;whiteSpace=wrap;rounded=0;" vertex="1" parent="2">
          <mxGeometry x="141" y="392" width="60" height="30" as="geometry" />
        </mxCell>
        <mxCell id="3" value="Hệ thống" style="swimlane;whiteSpace=wrap;startSize=23;" parent="1" vertex="1">
          <mxGeometry x="445" y="128" width="280" height="602" as="geometry" />
        </mxCell>
        <mxCell id="iM6wuMetMFg2LBtmJiii-45" value="Hiển thị thông tin chỉ tiết đơn đặt" style="rounded=1;whiteSpace=wrap;html=1;" vertex="1" parent="3">
          <mxGeometry x="65" y="102" width="105" height="48" as="geometry" />
        </mxCell>
        <mxCell id="iM6wuMetMFg2LBtmJiii-54" style="edgeStyle=orthogonalEdgeStyle;rounded=0;orthogonalLoop=1;jettySize=auto;html=1;exitX=0.5;exitY=1;exitDx=0;exitDy=0;" edge="1" parent="3" source="iM6wuMetMFg2LBtmJiii-45" target="iM6wuMetMFg2LBtmJiii-45">
          <mxGeometry relative="1" as="geometry" />
        </mxCell>
        <mxCell id="iM6wuMetMFg2LBtmJiii-81" style="edgeStyle=orthogonalEdgeStyle;rounded=0;orthogonalLoop=1;jettySize=auto;html=1;entryX=1;entryY=0.5;entryDx=0;entryDy=0;" edge="1" parent="3" source="iM6wuMetMFg2LBtmJiii-71" target="iM6wuMetMFg2LBtmJiii-44">
          <mxGeometry relative="1" as="geometry">
            <Array as="points">
              <mxPoint x="180" y="346" />
              <mxPoint x="180" y="516" />
            </Array>
          </mxGeometry>
        </mxCell>
        <mxCell id="iM6wuMetMFg2LBtmJiii-71" value="Thay đổi trạng thái không xác nhận đơn" style="rounded=1;whiteSpace=wrap;html=1;" vertex="1" parent="3">
          <mxGeometry x="55" y="322" width="105" height="48" as="geometry" />
        </mxCell>
        <mxCell id="iM6wuMetMFg2LBtmJiii-80" value="" style="edgeStyle=orthogonalEdgeStyle;rounded=0;orthogonalLoop=1;jettySize=auto;html=1;" edge="1" parent="3" source="iM6wuMetMFg2LBtmJiii-72" target="iM6wuMetMFg2LBtmJiii-44">
          <mxGeometry relative="1" as="geometry" />
        </mxCell>
        <mxCell id="iM6wuMetMFg2LBtmJiii-72" value="Thay đổi trạng thái xác nhận đơn&amp;nbsp;" style="rounded=1;whiteSpace=wrap;html=1;" vertex="1" parent="3">
          <mxGeometry x="55" y="392" width="105" height="48" as="geometry" />
        </mxCell>
        <mxCell id="iM6wuMetMFg2LBtmJiii-79" value="" style="edgeStyle=orthogonalEdgeStyle;rounded=0;orthogonalLoop=1;jettySize=auto;html=1;" edge="1" parent="3" source="iM6wuMetMFg2LBtmJiii-44" target="38">
          <mxGeometry relative="1" as="geometry" />
        </mxCell>
        <mxCell id="iM6wuMetMFg2LBtmJiii-44" value="Hiển thị thông báo thay đổi trạng thái đơn đặt thành công" style="rounded=1;whiteSpace=wrap;html=1;" vertex="1" parent="3">
          <mxGeometry x="50" y="490" width="110" height="50" as="geometry" />
        </mxCell>
        <mxCell id="38" value="" style="ellipse;shape=endState;fillColor=#000000;strokeColor=#ff0000" parent="3" vertex="1">
          <mxGeometry x="92.5" y="562" width="30" height="30" as="geometry" />
        </mxCell>
        <mxCell id="iM6wuMetMFg2LBtmJiii-59" value="Chức năng quản lý đơn thuê" style="rounded=0;whiteSpace=wrap;html=1;" vertex="1" parent="1">
          <mxGeometry x="139" y="88" width="585" height="40" as="geometry" />
        </mxCell>
        <mxCell id="iM6wuMetMFg2LBtmJiii-68" style="edgeStyle=orthogonalEdgeStyle;rounded=0;orthogonalLoop=1;jettySize=auto;html=1;entryX=1;entryY=0.5;entryDx=0;entryDy=0;" edge="1" parent="1" source="iM6wuMetMFg2LBtmJiii-45" target="iM6wuMetMFg2LBtmJiii-43">
          <mxGeometry relative="1" as="geometry">
            <Array as="points">
              <mxPoint x="563" y="324" />
            </Array>
          </mxGeometry>
        </mxCell>
        <mxCell id="iM6wuMetMFg2LBtmJiii-69" style="edgeStyle=orthogonalEdgeStyle;rounded=0;orthogonalLoop=1;jettySize=auto;html=1;" edge="1" parent="1" source="iM6wuMetMFg2LBtmJiii-41" target="iM6wuMetMFg2LBtmJiii-45">
          <mxGeometry relative="1" as="geometry" />
        </mxCell>
        <mxCell id="iM6wuMetMFg2LBtmJiii-76" style="edgeStyle=orthogonalEdgeStyle;rounded=0;orthogonalLoop=1;jettySize=auto;html=1;entryX=0;entryY=0.5;entryDx=0;entryDy=0;" edge="1" parent="1" source="iM6wuMetMFg2LBtmJiii-70" target="iM6wuMetMFg2LBtmJiii-71">
          <mxGeometry relative="1" as="geometry" />
        </mxCell>
      </root>
    </mxGraphModel>
  </diagram>
</mxfile>
